<?xml version="1.0" encoding="UTF-8" standalone="no"?>
<svg
   width="761"
   height="446"
   viewBox="0 0 761 446"
   fill="none"
   version="1.1"
   id="svg20"
   sodipodi:docname="lines.svg"
   inkscape:version="1.4.2 (f4327f4, 2025-05-13)"
   xmlns:inkscape="http://www.inkscape.org/namespaces/inkscape"
   xmlns:sodipodi="http://sodipodi.sourceforge.net/DTD/sodipodi-0.dtd"
   xmlns="http://www.w3.org/2000/svg"
   xmlns:svg="http://www.w3.org/2000/svg">
  <sodipodi:namedview
     id="namedview20"
     pagecolor="#ffffff"
     bordercolor="#000000"
     borderopacity="0.25"
     inkscape:showpageshadow="2"
     inkscape:pageopacity="0.0"
     inkscape:pagecheckerboard="0"
     inkscape:deskcolor="#d1d1d1"
     showguides="true"
     inkscape:zoom="1.307989"
     inkscape:cx="368.12236"
     inkscape:cy="230.50653"
     inkscape:window-width="1920"
     inkscape:window-height="1027"
     inkscape:window-x="1912"
     inkscape:window-y="-8"
     inkscape:window-maximized="1"
     inkscape:current-layer="g12" />
  <g
     clip-path="url(#clip0_64784_144170)"
     id="g12">
    <g
       opacity="0.2"
       id="g11"
       transform="matrix(0.93051389,0,0,0.93051389,8.6185002,6.7678348)"
       style="opacity:1">
      <mask
         id="mask0_64784_144170"
         maskUnits="userSpaceOnUse"
         x="-8"
         y="-40"
         width="816"
         height="543">
        <path
           d="M 808,-39.1973 H -8 V 502.788 h 816 z"
           fill="#ffffff"
           id="path1" />
      </mask>
      <g
         mask="url(#mask0_64784_144170)"
         id="g3">
        <path
           d="m 807.804,346.954 c -28.918,0 -59.176,-14.128 -90.001,-42.034 -15.09,-13.662 -29.108,-29.318 -42.664,-44.458 -10.493,-11.717 -21.34,-23.833 -32.607,-34.935 -31.422,-30.962 -60.713,-47.503 -89.546,-50.569 -38.794,-4.133 -75.275,16.292 -110.539,36.038 -30.166,16.892 -61.36,34.358 -94.541,37.181 -50.652,4.327 -97.845,-25.461 -137.331,-55.154 -6.413,-4.822 -12.916,-9.836 -19.206,-14.685 C 157.038,151.867 121.54,124.496 81.3498,113.076 35.4726,100.036 -23.384,113.62 -47.1131,164.797 l -1.426,-0.893 c 24.1211,-52.018 83.7872,-65.8651 130.2748,-52.657 40.4633,11.499 76.0823,38.963 110.5283,65.522 6.287,4.846 12.787,9.857 19.19,14.673 39.261,29.523 86.142,59.123 136.335,54.858 32.873,-2.797 63.924,-20.185 93.954,-37 35.464,-19.859 72.128,-40.385 111.392,-36.217 29.174,3.103 58.76,19.787 90.443,51.009 11.305,11.139 22.172,23.276 32.682,35.013 13.526,15.107 27.514,30.728 42.539,44.33 31.728,28.725 62.821,42.702 92.354,41.572 30.869,-1.192 67.32,-24.562 74.071,-65.529 l 1.59,0.355 c -6.909,41.925 -44.112,65.839 -75.608,67.054 -1.132,0.044 -2.267,0.067 -3.402,0.067 z"
           fill="#0d0d12"
           id="path2" />
        <path
           d="m 807.804,346.954 c -28.918,0 -59.176,-14.128 -90.001,-42.034 -15.09,-13.662 -29.108,-29.318 -42.664,-44.458 -10.493,-11.717 -21.34,-23.833 -32.607,-34.935 -31.422,-30.962 -60.713,-47.503 -89.546,-50.569 -38.794,-4.133 -75.275,16.292 -110.539,36.038 -30.166,16.892 -61.36,34.358 -94.541,37.181 -50.652,4.327 -97.845,-25.461 -137.331,-55.154 -6.413,-4.822 -12.916,-9.836 -19.206,-14.685 C 157.038,151.867 121.54,124.496 81.3498,113.076 35.4726,100.036 -23.384,113.62 -47.1131,164.797 l -1.426,-0.893 c 24.1211,-52.018 83.7872,-65.8651 130.2748,-52.657 40.4633,11.499 76.0823,38.963 110.5283,65.522 6.287,4.846 12.787,9.857 19.19,14.673 39.261,29.523 86.142,59.123 136.335,54.858 32.873,-2.797 63.924,-20.185 93.954,-37 35.464,-19.859 72.128,-40.385 111.392,-36.217 29.174,3.103 58.76,19.787 90.443,51.009 11.305,11.139 22.172,23.276 32.682,35.013 13.526,15.107 27.514,30.728 42.539,44.33 31.728,28.725 62.821,42.702 92.354,41.572 30.869,-1.192 67.32,-24.562 74.071,-65.529 l 1.59,0.355 c -6.909,41.925 -44.112,65.839 -75.608,67.054 -1.132,0.044 -2.267,0.067 -3.402,0.067 z"
           fill="url(#paint0_linear_64784_144170)"
           id="path3"
           style="fill:url(#paint0_linear_64784_144170)" />
      </g>
      <mask
         id="mask1_64784_144170"
         maskUnits="userSpaceOnUse"
         x="-8"
         y="-40"
         width="816"
         height="543">
        <path
           d="M 808,-39.1973 H -8 V 502.788 h 816 z"
           fill="#ffffff"
           id="path4" />
      </mask>
      <g
         mask="url(#mask1_64784_144170)"
         id="g5">
        <path
           d="m 152.101,273.959 c -8.858,0 -17.778,-0.767 -26.711,-2.451 -24.842,-4.685 -48.5175,-16.218 -71.4132,-27.371 -4.1489,-2.021 -8.2963,-4.041 -12.4448,-6.02 -26.9609,-12.856 -55.952,-24.556 -85.3321,-23.119 -32.3572,1.586 -60.6079,20.878 -71.9749,49.15 l -1.467,-0.797 c 11.619,-28.9 40.4206,-48.619 73.3724,-50.234 29.6741,-1.451 58.8833,10.319 86.0151,23.259 4.1552,1.98 8.3038,4.002 12.4559,6.025 22.8105,11.111 46.3956,22.6 71.0486,27.248 63.078,11.897 125.909,-22.41 167.679,-49.25 12.513,-8.039 25.105,-16.635 37.284,-24.948 38.082,-25.996 77.461,-52.876 120.516,-67.004 68.101,-22.348 144.995,-10.442 205.684,31.846 15.472,10.781 30.14,23.566 44.323,35.93 10.279,8.958 20.905,18.221 31.748,26.644 31.36,24.354 59.391,36.517 85.693,37.183 33.25,0.853 64.289,-19.688 75.567,-49.922 l 1.486,0.748 c -11.533,30.918 -43.267,51.87 -77.088,51.056 -26.621,-0.675 -54.934,-12.941 -86.556,-37.501 -10.881,-8.45 -21.527,-17.729 -31.821,-26.703 -14.151,-12.334 -28.784,-25.089 -44.184,-35.821 -60.316,-42.025 -136.732,-53.859 -204.413,-31.65 -42.854,14.064 -82.141,40.882 -120.137,66.817 -12.187,8.319 -24.788,16.921 -37.318,24.972 -36.083,23.186 -87.819,51.911 -142.012,51.913 z"
           fill="#102e4a"
           id="path5" />
      </g>
      <mask
         id="mask2_64784_144170"
         maskUnits="userSpaceOnUse"
         x="-8"
         y="-40"
         width="816"
         height="543">
        <path
           d="M 808,-39.1973 H -8 V 502.788 h 816 z"
           fill="#ffffff"
           id="path6" />
      </mask>
      <g
         mask="url(#mask2_64784_144170)"
         id="g8">
        <path
           d="m 296.482,405.473 c -16.468,10e-4 -32.161,-3.536 -46.487,-10.756 C 211.448,375.29 186.357,332.243 166.9,292.696 163.949,286.701 161.039,280.645 158.123,274.578 141.225,239.415 123.75,203.056 97.2875,176.858 53.3675,133.378 -12.999,124.735 -64.1083,155.84 l -0.7511,-1.667 c 51.6801,-31.453 118.7884,-22.711 163.1967,21.252 26.6837,26.418 44.2307,62.927 61.1997,98.235 2.912,6.062 5.822,12.112 8.767,18.102 19.327,39.277 44.222,82.021 82.336,101.229 44.77,22.563 103.235,8.643 156.382,-37.244 23.583,-20.363 44.876,-44.836 65.468,-68.504 18.657,-21.443 37.948,-43.616 58.93,-62.729 25.182,-22.941 90.869,-73.455 156.783,-47.081 22.94,9.177 42.677,26.729 61.764,43.703 l 2.455,2.181 c 20.713,18.396 41.262,35.518 64.902,42.892 26.768,8.348 53.865,1.063 69.021,-18.566 l 1.205,1.257 c -15.56,20.15 -43.286,27.661 -70.647,19.126 -23.923,-7.462 -44.617,-24.699 -65.464,-43.212 l -2.455,-2.183 C 730,205.748 710.367,188.29 687.675,179.212 c -65.152,-26.07 -130.281,24.032 -155.256,46.783 -20.909,19.047 -40.166,41.182 -58.79,62.586 -20.632,23.714 -41.966,48.235 -65.643,68.676 -36.665,31.657 -75.884,48.214 -111.504,48.216 z"
           fill="#0d0d12"
           id="path7" />
        <path
           d="m 296.482,405.473 c -16.468,10e-4 -32.161,-3.536 -46.487,-10.756 C 211.448,375.29 186.357,332.243 166.9,292.696 163.949,286.701 161.039,280.645 158.123,274.578 141.225,239.415 123.75,203.056 97.2875,176.858 53.3675,133.378 -12.999,124.735 -64.1083,155.84 l -0.7511,-1.667 c 51.6801,-31.453 118.7884,-22.711 163.1967,21.252 26.6837,26.418 44.2307,62.927 61.1997,98.235 2.912,6.062 5.822,12.112 8.767,18.102 19.327,39.277 44.222,82.021 82.336,101.229 44.77,22.563 103.235,8.643 156.382,-37.244 23.583,-20.363 44.876,-44.836 65.468,-68.504 18.657,-21.443 37.948,-43.616 58.93,-62.729 25.182,-22.941 90.869,-73.455 156.783,-47.081 22.94,9.177 42.677,26.729 61.764,43.703 l 2.455,2.181 c 20.713,18.396 41.262,35.518 64.902,42.892 26.768,8.348 53.865,1.063 69.021,-18.566 l 1.205,1.257 c -15.56,20.15 -43.286,27.661 -70.647,19.126 -23.923,-7.462 -44.617,-24.699 -65.464,-43.212 l -2.455,-2.183 C 730,205.748 710.367,188.29 687.675,179.212 c -65.152,-26.07 -130.281,24.032 -155.256,46.783 -20.909,19.047 -40.166,41.182 -58.79,62.586 -20.632,23.714 -41.966,48.235 -65.643,68.676 -36.665,31.657 -75.884,48.214 -111.504,48.216 z"
           fill="url(#paint1_linear_64784_144170)"
           id="path8"
           style="fill:url(#paint1_linear_64784_144170)" />
      </g>
      <mask
         id="mask3_64784_144170"
         maskUnits="userSpaceOnUse"
         x="-8"
         y="-40"
         width="816"
         height="543">
        <path
           d="M 808,-39.1973 H -8 V 502.788 h 816 z"
           fill="#ffffff"
           id="path9" />
      </mask>
      <g
         mask="url(#mask3_64784_144170)"
         id="g10">
        <path
           d="M 413.78,373.323 C 340.402,373.327 277.307,310.849 235.754,263.128 228.453,254.743 221.059,246.038 213.91,237.62 171.057,187.166 126.745,134.993 69.3842,111.65 3.17556,84.7064 -73.639,102.105 -126.302,155.982 l -1.069,-1.413 c 25.87,-26.467 58.2208,-44.689 93.5567,-52.693 35.33124,-8.0051 71.2048,-5.2393 103.7329,7.998 57.7154,23.488 102.1614,75.817 145.1434,126.424 7.147,8.415 14.535,17.115 21.83,25.492 42.697,49.033 108.233,113.731 184.049,109.451 38.737,-2.184 78.286,-21.807 124.467,-61.756 12.475,-10.792 24.797,-22.376 36.713,-33.58 23.287,-21.892 47.367,-44.529 73.697,-62.297 26.887,-18.141 79.857,-45.823 132.556,-27.34 31.426,11.02 57.786,36.969 81.045,59.864 l 44.482,43.793 -1.047,1.436 -44.483,-43.794 c -23.137,-22.775 -49.361,-48.592 -80.465,-59.499 -52.113,-18.276 -104.615,9.178 -131.275,27.168 -26.223,17.694 -50.253,40.285 -73.492,62.132 -11.929,11.215 -24.263,22.812 -36.763,33.625 -46.451,40.183 -86.284,59.925 -125.356,62.127 -2.423,0.136 -4.839,0.203 -7.24,0.203 z"
           fill="url(#paint2_linear_64784_144170)"
           id="path10"
           style="fill:url(#paint2_linear_64784_144170)" />
      </g>
    </g>
  </g>
  <defs
     id="defs20">
    <linearGradient
       id="paint0_linear_64784_144170"
       x1="301.173"
       y1="166.092"
       x2="887.569"
       y2="144.119"
       gradientUnits="userSpaceOnUse">
      <stop
         stop-color="#003E7D"
         stop-opacity="0.6"
         id="stop12" />
      <stop
         offset="0.405611"
         stop-color="#003E7D"
         id="stop13" />
      <stop
         offset="0.918269"
         stop-color="#0583AC"
         id="stop14" />
    </linearGradient>
    <linearGradient
       id="paint1_linear_64784_144170"
       x1="291.229"
       y1="202.284"
       x2="888.468"
       y2="182.001"
       gradientUnits="userSpaceOnUse">
      <stop
         stop-color="#003E7D"
         stop-opacity="0.6"
         id="stop15" />
      <stop
         offset="0.405611"
         stop-color="#003E7D"
         id="stop16" />
      <stop
         offset="0.918269"
         stop-color="#0583AC"
         id="stop17" />
    </linearGradient>
    <linearGradient
       id="paint2_linear_64784_144170"
       x1="261.942"
       y1="165.728"
       x2="914.795"
       y2="142.002"
       gradientUnits="userSpaceOnUse">
      <stop
         stop-color="#003E7D"
         stop-opacity="0.6"
         id="stop18"
         offset="0"
         style="stop-color:#0029a1;stop-opacity:0.57868022;" />
      <stop
         offset="0.40854356"
         stop-color="#003E7D"
         id="stop19"
         style="stop-color:#002eb5;stop-opacity:1;" />
      <stop
         offset="0.91826898"
         stop-color="#0583AC"
         id="stop20"
         style="stop-color:#4cf7ff;stop-opacity:1;" />
    </linearGradient>
    <clipPath
       id="clip0_64784_144170">
      <rect
         width="761"
         height="446"
         fill="white"
         id="rect20" />
    </clipPath>
  </defs>
</svg>
