<svg xmlns="http://www.w3.org/2000/svg" xmlns:xlink="http://www.w3.org/1999/xlink" version="1.1" id="Layer_1" x="0px" y="0px" viewBox="0 0 512 512" style="width: 200px; height: 200px; transform-origin: 50% 50%; transform: scaleX(1) scaleY(1) rotate(0deg);" xml:space="preserve" preserveAspectRatio="xMidYMid meet">
<g class="" style="fill:#000000">
	<path style="fill:#000000" d="M460.8,256c0-112.927-91.873-204.803-204.797-204.803c-54.71,0-106.14,21.309-144.819,59.991   l48.269,48.271c25.789-25.789,60.078-39.995,96.55-39.995c75.282,0,136.532,61.251,136.532,136.535h-51.2l85.33,85.335L512,256   H460.8z"/>
	<path style="fill:#000000" d="M256.003,392.535c-75.29,0-136.535-61.251-136.535-136.535h51.2l-85.332-85.335L0,256h51.2   c0,112.927,91.871,204.803,204.803,204.803c54.707,0,106.138-21.307,144.814-59.991l-48.271-48.269   C326.758,378.33,292.467,392.535,256.003,392.535z"/>
</g>
<g class="" style="fill:#000000">
</g>
<g class="" style="fill:#000000">
</g>
<g class="" style="fill:#000000">
</g>
<g class="" style="fill:#000000">
</g>
<g class="" style="fill:#000000">
</g>
<g class="" style="fill:#000000">
</g>
<g class="" style="fill:#000000">
</g>
<g class="" style="fill:#000000">
</g>
<g class="" style="fill:#000000">
</g>
<g class="" style="fill:#000000">
</g>
<g class="" style="fill:#000000">
</g>
<g class="" style="fill:#000000">
</g>
<g class="" style="fill:#000000">
</g>
<g class="" style="fill:#000000">
</g>
<g class="" style="fill:#000000">
</g>
</svg>